<svg xmlns="http://www.w3.org/2000/svg" version="1.1" xmlns:xlink="http://www.w3.org/1999/xlink" xmlns:svgjs="http://svgjs.dev/svgjs" width="1500" height="375" viewBox="0 0 1500 375"><g transform="matrix(1,0,0,1,-0.9090909090907644,-0.15731310193464765)"><svg viewBox="0 0 396 99" data-background-color="#f9fbff" preserveAspectRatio="xMidYMid meet" height="375" width="1500" xmlns="http://www.w3.org/2000/svg" xmlns:xlink="http://www.w3.org/1999/xlink"><g id="tight-bounds" transform="matrix(1,0,0,1,0.23999999999995225,0.04153065891074448)"><svg viewBox="0 0 395.52 98.91693868217854" height="98.91693868217854" width="395.52"><g><svg viewBox="0 0 576.4620663442661 144.1693539370391" height="98.91693868217854" width="395.52"><g><rect width="5.897219202166559" height="125.18323062550425" x="159.60710053956936" y="9.49306165576742" fill="#375a82" opacity="1" stroke-width="0" stroke="transparent" fill-opacity="1" class="rect-yte-0" data-fill-palette-color="primary" rx="1%" id="yte-0" data-palette-color="#375a82"></rect></g><g transform="matrix(1,0,0,1,180.94206634426618,19.924997541226105)"><svg viewBox="0 0 395.52 104.31935885458688" height="104.31935885458688" width="395.52"><g id="textblocktransform"><svg viewBox="0 0 395.52 104.31935885458688" height="104.31935885458688" width="395.52" id="textblock"><g><svg viewBox="0 0 395.52 65.39312171728704" height="65.39312171728704" width="395.52"><g transform="matrix(1,0,0,1,0,0)"><svg width="395.52" viewBox="0.6 -35.25 218.93 36.2" height="65.39312171728704" data-palette-color="#375a82"><path d="M33.4 0.85L33.4 0.85Q32.95 0.85 31.63 0.1 30.3-0.65 29.1-2.3L29.1-2.3Q28.9-2.55 27.88-3.8 26.85-5.05 25.28-6.93 23.7-8.8 21.85-11 20-13.2 18.15-15.4 16.3-17.6 14.7-19.48 13.1-21.35 12.03-22.63 10.95-23.9 10.7-24.2L10.7-24.2Q10.35-24.65 10.1-24.83 9.85-25 9.65-25L9.65-25Q9.4-25 9.3-24.63 9.2-24.25 9.2-23.95L9.2-23.95Q9.15-21.5 9.1-18.3 9.05-15.1 9-11.7 8.95-8.3 8.95-5.2L8.95-5.2Q8.95-3.85 9.63-2.7 10.3-1.55 12.15-1.2L12.15-1.2Q13-1.05 13.4-0.85 13.8-0.65 13.8-0.3L13.8-0.3Q13.8 0 13.4 0.13 13 0.25 12.35 0.25L12.35 0.25Q11 0.25 10.33 0.18 9.65 0.1 9.13 0.05 8.6 0 7.65 0L7.65 0Q6.75 0 6.25 0.05 5.75 0.1 5.1 0.18 4.45 0.25 3.1 0.25L3.1 0.25Q2.45 0.25 2.05 0.13 1.65 0 1.65-0.3L1.65-0.3Q1.65-0.65 2.05-0.85 2.45-1.05 3.3-1.25L3.3-1.25Q4.75-1.65 5.4-2.73 6.05-3.8 6.2-5.35L6.2-5.35Q6.4-7.25 6.6-10.38 6.8-13.5 6.95-17.38 7.1-21.25 7.1-25.35L7.1-25.35Q7.1-28 5.73-29.15 4.35-30.3 2.15-31L2.15-31Q1.95-31.1 1.28-31.43 0.6-31.75 0.6-32.2L0.6-32.2Q0.6-32.65 1.05-32.77 1.5-32.9 1.75-32.9L1.75-32.9Q3.2-32.85 4.1-32.83 5-32.8 5.7-32.75 6.4-32.7 7.25-32.68 8.1-32.65 9.45-32.65L9.45-32.65Q9.9-32.65 10.15-32.4 10.4-32.15 10.65-31.8L10.65-31.8Q10.85-31.5 11.98-30.13 13.1-28.75 14.78-26.68 16.45-24.6 18.45-22.18 20.45-19.75 22.45-17.32 24.45-14.9 26.15-12.83 27.85-10.75 28.98-9.4 30.1-8.05 30.3-7.8L30.3-7.8Q30.5-7.6 30.88-7.2 31.25-6.8 31.55-6.8L31.55-6.8Q32-6.8 32.05-7.85L32.05-7.85Q32.05-8.55 32.08-10.53 32.1-12.5 32.13-15.33 32.15-18.15 32.15-21.45 32.15-24.75 32.15-28.2L32.15-28.2Q32.1-29.2 31.1-30 30.1-30.8 29.25-30.95L29.25-30.95Q28.4-31.1 27.7-31.35 27-31.6 27-31.95L27-31.95Q27-32.25 27.7-32.38 28.4-32.5 29.05-32.5L29.05-32.5Q29.55-32.5 30.03-32.5 30.5-32.5 30.98-32.5 31.45-32.5 31.9-32.5L31.9-32.5Q33.1-32.5 33.8-32.52 34.5-32.55 35.33-32.6 36.15-32.65 37.65-32.65L37.65-32.65Q38.3-32.65 38.7-32.52 39.1-32.4 39.1-32.1L39.1-32.1Q39.1-31.4 37.45-31.1L37.45-31.1Q35.6-30.75 35-30.2 34.4-29.65 34.3-28.4L34.3-28.4Q34.3-28.15 34.27-26.45 34.25-24.75 34.25-22.15 34.25-19.55 34.23-16.55 34.2-13.55 34.2-10.58 34.2-7.6 34.2-5.25L34.2-5.25Q34.2-4.05 34.27-3.08 34.35-2.1 34.4-1.43 34.45-0.75 34.45-0.4L34.45-0.4Q34.45 0.4 34.13 0.63 33.8 0.85 33.4 0.85ZM51.3 0.7L51.3 0.7Q48.5 0.7 46.25-0.6 44-1.9 42.67-4.17 41.35-6.45 41.35-9.35L41.35-9.35Q41.35-11.45 42.17-13.45 43-15.45 44.5-17.1 46-18.75 48-19.73 50-20.7 52.3-20.7L52.3-20.7Q55.2-20.7 57.52-19.3 59.85-17.9 61.22-15.63 62.6-13.35 62.6-10.65L62.6-10.65Q62.6-7.75 61.32-5.15 60.05-2.55 57.55-0.93 55.05 0.7 51.3 0.7ZM52.35-0.8L52.35-0.8Q54.05-0.8 55.4-1.45 56.75-2.1 57.5-3.55L57.5-3.55Q58.1-4.7 58.3-6.35 58.5-8 58.5-9.45L58.5-9.45Q58.5-11.85 57.62-14.08 56.75-16.3 55.17-17.73 53.6-19.15 51.45-19.15L51.45-19.15Q50.1-19.15 49.02-18.73 47.95-18.3 47.05-17.15L47.05-17.15Q46.05-15.9 45.75-14.1 45.45-12.3 45.45-10.5L45.45-10.5Q45.45-8.05 46.35-5.83 47.25-3.6 48.8-2.2 50.35-0.8 52.35-0.8ZM73.8 0.7L73.8 0.7Q71.34 0.7 69.97-0.8 68.59-2.3 68.59-5.25L68.59-5.25 68.59-16.85Q68.59-17.25 68.3-17.43 68-17.6 67-17.6L67-17.6 66.69-17.6Q66.44-17.6 66.27-17.93 66.09-18.25 66.09-18.6L66.09-18.6Q66.09-18.7 66.25-18.9 66.39-19.1 66.44-19.15L66.44-19.15Q67.44-19.85 68.27-20.55 69.09-21.25 69.77-21.93 70.44-22.6 70.89-23.15L70.89-23.15Q71.14-23.4 71.32-23.58 71.5-23.75 71.75-23.75L71.75-23.75Q72-23.75 72.22-23.65 72.44-23.55 72.39-23.2L72.39-23.2 72.14-20.95Q72.09-20.4 72.39-20.2 72.69-20 73.34-20L73.34-20 79.05-20Q79.25-20 79.39-19.68 79.55-19.35 79.55-18.9L79.55-18.9Q79.55-18.45 79.39-18.03 79.25-17.6 79.05-17.6L79.05-17.6 74.09-17.6Q72.84-17.6 72.47-17.4 72.09-17.2 72.09-16.2L72.09-16.2 72.09-6.35Q72.09-4.35 72.94-3.2 73.8-2.05 75.39-2.05L75.39-2.05Q76.84-2.05 77.64-2.27 78.44-2.5 79.09-2.95L79.09-2.95Q79.19-3.05 79.3-3.05L79.3-3.05Q79.5-3.05 79.57-2.83 79.64-2.6 79.64-2.35L79.64-2.35Q79.64-2.1 78.82-1.35 78-0.6 76.67 0.05 75.34 0.7 73.8 0.7ZM90.69 0.75L90.69 0.75Q87.94 0.75 85.89-0.6 83.84-1.95 82.69-4.42 81.54-6.9 81.54-10.15L81.54-10.15Q81.54-13.05 82.87-15.43 84.19-17.8 86.39-19.25 88.59-20.7 91.19-20.7L91.19-20.7Q93.19-20.7 94.74-19.9 96.29-19.1 97.17-17.68 98.04-16.25 98.04-14.4L98.04-14.4Q98.04-12.85 96.54-12.85L96.54-12.85 85.99-12.85Q85.29-12.85 85.02-12.48 84.74-12.1 84.74-11L84.74-11Q84.74-8.6 85.79-6.63 86.84-4.65 88.59-3.48 90.34-2.3 92.44-2.3L92.44-2.3Q93.94-2.3 95.17-2.88 96.39-3.45 97.34-4.55L97.34-4.55Q97.54-4.8 97.64-4.88 97.74-4.95 97.89-4.95L97.89-4.95Q98.29-4.95 98.29-4.45L98.29-4.45Q98.29-3.5 97.39-2.35L97.39-2.35Q96.64-1.4 95.59-0.7 94.54 0 93.29 0.38 92.04 0.75 90.69 0.75ZM86.09-14.4L86.09-14.4 90.64-14.4Q91.84-14.4 92.69-14.45 93.54-14.5 94.34-14.65L94.34-14.65Q94.59-14.7 94.67-14.98 94.74-15.25 94.74-15.75L94.74-15.75Q94.74-17.2 93.47-18.23 92.19-19.25 90.44-19.25L90.44-19.25Q89.29-19.25 88.14-18.57 86.99-17.9 86.24-16.9 85.49-15.9 85.49-14.9L85.49-14.9Q85.49-14.4 86.09-14.4ZM106.74 0.7L106.74 0.7Q105.19 0.7 103.84 0.23 102.49-0.25 101.54-1.1L101.54-1.1Q101.29-1.65 101.17-2.95 101.04-4.25 100.99-5.1L100.99-5.1Q100.99-5.55 101.64-5.55L101.64-5.55Q101.84-5.55 102.02-5.48 102.19-5.4 102.24-5.2L102.24-5.2Q102.89-2.75 104.32-1.7 105.74-0.65 107.19-0.65L107.19-0.65Q108.64-0.65 109.67-1.63 110.69-2.6 110.69-4.05L110.69-4.05Q110.69-5.4 109.79-6.38 108.89-7.35 106.64-8.75L106.64-8.75Q104.94-9.8 103.89-10.75 102.84-11.7 102.37-12.7 101.89-13.7 101.89-14.95L101.89-14.95Q101.89-16.55 102.64-17.85 103.39-19.15 104.89-19.93 106.39-20.7 108.64-20.7L108.64-20.7Q110.14-20.7 111.14-20.4 112.14-20.1 112.64-19.75L112.64-19.75Q113.04-19.2 113.32-18.03 113.59-16.85 113.59-15.8L113.59-15.8Q113.59-15.45 113.09-15.45L113.09-15.45Q112.79-15.45 112.52-15.58 112.24-15.7 112.14-15.9L112.14-15.9Q111.49-17.55 110.52-18.43 109.54-19.3 108.09-19.3L108.09-19.3Q106.84-19.3 105.87-18.55 104.89-17.8 104.89-16.35L104.89-16.35Q104.89-15.2 105.62-14.3 106.34-13.4 108.34-12.25L108.34-12.25Q111.24-10.6 112.67-9.18 114.09-7.75 114.09-5.4L114.09-5.4Q114.09-2.7 112.04-1 109.99 0.7 106.74 0.7ZM126.39 0.25L126.39 0.25Q125.74 0.25 125.34 0.13 124.94 0 124.94-0.3L124.94-0.3Q124.94-0.65 125.34-0.85 125.74-1.05 126.59-1.2L126.59-1.2Q128.49-1.55 129.49-2.43 130.49-3.3 130.49-5.1L130.49-5.1 130.49-24.5Q130.49-26.8 130.39-28.03 130.29-29.25 130.06-29.75 129.84-30.25 129.44-30.3L129.44-30.3Q128.74-30.45 127.96-30.48 127.19-30.5 125.89-30.5L125.89-30.5 123.54-30.5Q122.34-30.5 121.16-30.03 119.99-29.55 119.44-28.55L119.44-28.55Q119.29-28.3 118.94-27.83 118.59-27.35 118.19-27 117.79-26.65 117.39-26.65L117.39-26.65Q117.19-26.65 117.11-26.85 117.04-27.05 117.04-27.3L117.04-27.3Q117.04-27.8 117.29-28.3L117.29-28.3Q117.99-29.75 118.31-30.88 118.64-32 118.84-33.55L118.84-33.55Q118.94-34.4 119.21-34.55 119.49-34.7 119.69-34.7L119.69-34.7Q119.89-34.7 120.31-34.1 120.74-33.5 120.94-33.1L120.94-33.1Q121.24-32.6 122.31-32.35 123.39-32.1 124.44-32.1L124.44-32.1 142.04-32.1Q143.79-32.1 144.89-32.3 145.99-32.5 146.79-32.85L146.79-32.85Q147.39-33.15 147.76-33.5 148.14-33.85 148.74-33.85L148.74-33.85Q148.89-33.85 148.99-33.48 149.09-33.1 149.09-32.7L149.09-32.7Q149.09-32.45 149.01-32 148.94-31.55 148.89-31.3L148.89-31.3Q148.74-30.4 148.61-30 148.49-29.6 148.44-29.3 148.39-29 148.39-28.35L148.39-28.35 148.39-27.75Q148.39-27.3 148.19-26.73 147.99-26.15 147.59-26.15L147.59-26.15Q147.24-26.15 147.04-26.7 146.84-27.25 146.64-28.2L146.64-28.2Q146.44-29.25 145.44-29.88 144.44-30.5 142.04-30.5L142.04-30.5 136.99-30.5Q135.89-30.5 135.34-30.2 134.79-29.9 134.64-28.7 134.49-27.5 134.49-24.75L134.49-24.75 134.49-5.1Q134.49-3.3 135.54-2.43 136.59-1.55 138.44-1.2L138.44-1.2Q139.29-1.05 139.69-0.85 140.09-0.65 140.09-0.3L140.09-0.3Q140.09 0 139.69 0.13 139.29 0.25 138.64 0.25L138.64 0.25Q137.29 0.25 136.41 0.18 135.54 0.1 134.74 0.05 133.94 0 132.79 0L132.79 0Q131.54 0 130.61 0.05 129.69 0.1 128.71 0.18 127.74 0.25 126.39 0.25ZM167.49 0.95L167.49 0.95Q167.13 0.95 167.13 0.55L167.13 0.55Q167.13 0.05 167.26-0.93 167.38-1.9 167.38-2.55L167.38-2.55Q167.38-2.65 167.38-2.73 167.38-2.8 167.38-2.85L167.38-2.85Q165.44-0.95 163.46-0.13 161.49 0.7 159.13 0.7L159.13 0.7Q157.53 0.7 156.24 0.03 154.94-0.65 154.19-1.98 153.44-3.3 153.44-5.25L153.44-5.25 153.44-15.4Q153.44-16.5 152.94-17.15 152.44-17.8 151.28-18.25L151.28-18.25Q151.03-18.35 150.84-18.5 150.63-18.65 150.63-19.05L150.63-19.05Q150.63-19.5 150.86-19.65 151.09-19.8 151.38-19.85L151.38-19.85Q153.09-19.95 154.01-20.13 154.94-20.3 156.34-20.65L156.34-20.65Q156.49-20.7 156.56-20.7 156.63-20.7 156.74-20.7L156.74-20.7Q157.28-20.7 157.24-20L157.24-20Q157.09-18.85 157.01-18.07 156.94-17.3 156.94-16.15L156.94-16.15 156.94-6.4Q156.94-5.2 157.53-4.17 158.13-3.15 159.11-2.5 160.09-1.85 161.13-1.85L161.13-1.85Q162.44-1.85 163.41-2 164.38-2.15 165.34-2.85L165.34-2.85Q165.88-3.25 166.74-4.15 167.59-5.05 167.59-6.6L167.59-6.6 167.59-15.75Q167.59-16.8 166.96-17.32 166.34-17.85 165.53-18.05 164.74-18.25 164.24-18.25L164.24-18.25Q163.78-18.25 163.49-18.43 163.19-18.6 163.19-19.1L163.19-19.1Q163.19-19.55 163.51-19.7 163.84-19.85 164.24-19.85L164.24-19.85Q165.78-19.9 166.81-19.98 167.84-20.05 168.66-20.23 169.49-20.4 170.38-20.65L170.38-20.65Q170.49-20.7 170.63-20.73 170.78-20.75 170.88-20.75L170.88-20.75Q171.53-20.75 171.53-20.2L171.53-20.2Q171.53-20.15 171.51-20.03 171.49-19.9 171.44-19.75L171.44-19.75Q171.38-19.6 171.31-18.9 171.24-18.2 171.16-17.45 171.09-16.7 171.09-16.3L171.09-16.3 171.09-4.75Q171.09-3.4 171.36-2.83 171.63-2.25 171.99-2.25L171.99-2.25Q172.38-2.25 173.16-2.33 173.94-2.4 174.28-2.4L174.28-2.4Q174.53-2.4 174.78-2.3 175.03-2.2 175.03-1.75L175.03-1.75Q175.03-1.35 174.84-1.23 174.63-1.1 174.34-1.05L174.34-1.05Q172.38-0.8 170.99-0.3 169.59 0.2 168.49 0.65L168.49 0.65Q168.34 0.7 168.03 0.83 167.74 0.95 167.49 0.95ZM188.48 0.7L188.48 0.7Q187.38 0.7 186.28 0.5 185.18 0.3 184.18 0.05L184.18 0.05Q183.08-0.25 182.26-0.5 181.43-0.75 181.18-0.75L181.18-0.75Q180.88-0.75 180.61-0.55 180.33-0.35 180.08-0.1L180.08-0.1Q179.83 0.15 179.63 0.15L179.63 0.15Q179.43 0.15 179.18-0.03 178.93-0.2 178.93-0.45L178.93-0.45Q178.93-0.9 179.11-2 179.28-3.1 179.28-4.05L179.28-4.05 179.28-28.3Q179.28-29.6 178.63-30.55 177.98-31.5 176.98-31.95L176.98-31.95Q176.78-32.05 176.56-32.23 176.33-32.4 176.33-32.7L176.33-32.7Q176.33-32.95 176.53-33.05 176.73-33.15 176.93-33.2L176.93-33.2Q177.58-33.35 178.71-33.75 179.83-34.15 180.83-34.55 181.83-34.95 182.18-35.1L182.18-35.1Q182.48-35.25 182.63-35.25L182.63-35.25Q182.73-35.25 182.83-35.15 182.93-35.05 182.93-34.9L182.93-34.9Q182.93-34.7 182.86-33.23 182.78-31.75 182.78-29.65L182.78-29.65 182.78-19.4Q182.78-18.45 182.88-18.13 182.98-17.8 183.23-17.75L183.23-17.75Q184.78-19.05 186.83-19.88 188.88-20.7 190.53-20.7L190.53-20.7Q193.08-20.7 195.11-19.4 197.13-18.1 198.33-15.88 199.53-13.65 199.53-10.85L199.53-10.85Q199.53-7.45 198.13-4.83 196.73-2.2 194.26-0.75 191.78 0.7 188.48 0.7ZM189.63-0.85L189.63-0.85Q191.53-0.85 192.91-2.02 194.28-3.2 195.03-5.23 195.78-7.25 195.78-9.75L195.78-9.75Q195.78-11.7 195.06-13.75 194.33-15.8 192.81-17.2 191.28-18.6 188.88-18.6L188.88-18.6Q186.88-18.6 185.38-17.95 183.88-17.3 182.78-16.3L182.78-16.3 182.78-6.6Q182.78-4.85 183.76-3.55 184.73-2.25 186.31-1.55 187.88-0.85 189.63-0.85ZM211.93 0.75L211.93 0.75Q209.18 0.75 207.13-0.6 205.08-1.95 203.93-4.42 202.78-6.9 202.78-10.15L202.78-10.15Q202.78-13.05 204.1-15.43 205.43-17.8 207.63-19.25 209.83-20.7 212.43-20.7L212.43-20.7Q214.43-20.7 215.98-19.9 217.53-19.1 218.41-17.68 219.28-16.25 219.28-14.4L219.28-14.4Q219.28-12.85 217.78-12.85L217.78-12.85 207.23-12.85Q206.53-12.85 206.25-12.48 205.98-12.1 205.98-11L205.98-11Q205.98-8.6 207.03-6.63 208.08-4.65 209.83-3.48 211.58-2.3 213.68-2.3L213.68-2.3Q215.18-2.3 216.41-2.88 217.63-3.45 218.58-4.55L218.58-4.55Q218.78-4.8 218.88-4.88 218.98-4.95 219.13-4.95L219.13-4.95Q219.53-4.95 219.53-4.45L219.53-4.45Q219.53-3.5 218.63-2.35L218.63-2.35Q217.88-1.4 216.83-0.7 215.78 0 214.53 0.38 213.28 0.75 211.93 0.75ZM207.33-14.4L207.33-14.4 211.88-14.4Q213.08-14.4 213.93-14.45 214.78-14.5 215.58-14.65L215.58-14.65Q215.83-14.7 215.91-14.98 215.98-15.25 215.98-15.75L215.98-15.75Q215.98-17.2 214.71-18.23 213.43-19.25 211.68-19.25L211.68-19.25Q210.53-19.25 209.38-18.57 208.23-17.9 207.48-16.9 206.73-15.9 206.73-14.9L206.73-14.9Q206.73-14.4 207.33-14.4Z" opacity="1" transform="matrix(1,0,0,1,0,0)" fill="#375a82" class="wordmark-text-0" data-fill-palette-color="primary" id="text-0"></path></svg></g></svg></g><g transform="matrix(1,0,0,1,0,80.8308683198173)"><svg viewBox="0 0 375.74399999999997 23.48849053476958" height="23.48849053476958" width="375.74399999999997"><g transform="matrix(1,0,0,1,0,0)"><svg width="375.74399999999997" viewBox="5.37 -39.89 845.24 52.840563380281694" height="23.48849053476958" data-palette-color="#375a82"><path d="M5.37 0L5.37-37.94 26.9-37.94 26.68-34.03 9.59-34.03 9.59-21.34 24.83-21.34 24.83-17.48 9.59-17.48 9.59 0 5.37 0ZM39.67-20.17L38.25-18.12Q38.35-16.26 38.35-13.43L38.35-13.43 38.35 0 34.23 0Q34.23-25.9 33.93-28.25L33.93-28.25 37.99-28.59 37.99-21.73Q41.23-28.59 46.7-28.59L46.7-28.59Q48.58-28.59 49.8-28.3L49.8-28.3 48.9-23.95Q47.73-24.54 46.27-24.55 44.82-24.56 43.63-23.9 42.43-23.24 41.44-22.27 40.45-21.29 39.67-20.17L39.67-20.17ZM54.02-13.77L54.02-13.77Q54.02-17.29 54.99-20.08 55.95-22.88 57.69-24.76L57.69-24.76Q61.18-28.59 66.87-28.59L66.87-28.59Q72.97-28.59 76.17-24.8L76.17-24.8Q79.29-21.09 79.29-14.01L79.29-14.01Q79.29-7.03 75.53-3.1L75.53-3.1Q72.09 0.49 66.52 0.49L66.52 0.49Q60.69 0.49 57.39-3.17L57.39-3.17Q54.02-6.86 54.02-13.77ZM66.57-3.05L66.57-3.05Q74.82-3.05 74.82-14.01L74.82-14.01Q74.68-22.22 70.33-24.29L70.33-24.29Q68.79-25.02 66.73-25.02 64.67-25.02 63.11-24.28 61.54-23.54 60.47-22.12L60.47-22.12Q58.3-19.17 58.36-13.89 58.42-8.62 60.48-5.83 62.54-3.05 66.57-3.05ZM92.5 0L88.32 0 88.35-8.28Q88.35-18.82 88.27-21.73L88.27-21.73 88.18-25.59Q88.1-27.83 88.03-28.25L88.03-28.25 92.23-28.47Q92.2-28.17 92.19-27.7 92.18-27.22 92.18-26.51L92.18-26.51 92.18-24.68 94.04-26Q97.72-28.59 101.08-28.59 104.44-28.59 106.43-27.55 108.42-26.51 109.39-24.32L109.39-24.32Q109.71-24.51 111.26-25.6 112.81-26.68 113.91-27.25L113.91-27.25Q116.5-28.59 118.94-28.59L118.94-28.59Q123.58-28.59 125.8-26.45 128.02-24.32 128.14-19.68L128.14-19.68 128.14 0 123.99 0 123.99-18.19Q123.99-21.95 122.89-23.44L122.89-23.44Q121.79-24.9 119.11-24.9L119.11-24.9Q116.72-24.9 115.17-24.29 113.62-23.68 112.54-23.07L112.54-23.07 110.2-21.68 110.12-21.63Q110.3-20.83 110.3-19.68L110.3-19.68 110.3 0 106.17 0 106.17-18.19Q106.17-21.92 105.07-23.44L105.07-23.44Q104.02-24.9 101.31-24.9L101.31-24.9Q98.92-24.9 97.37-24.29 95.82-23.68 94.74-23.07L94.74-23.07 92.4-21.68 92.45-19.46Q92.5-17.6 92.5-15.7L92.5-15.7 92.5 0ZM166.88 0L161.17 0 157.92-11.11 150.48-37.94 155.29-37.94 161.95-12.04 163.98-3.88 165.86-12.04 172.52-37.94 177.7-37.94 184.29-12.04 186.12-3.88 194.84-37.94 199.65-37.94 192.42-11.74 188.98 0 183.26 0 176.79-25.27 175.18-33.01 174.96-33.01 173.3-25.27 166.88 0ZM225.69-2.81L225.96 0.22Q225.16 0.49 223.96 0.49 222.76 0.49 221.99 0.22 221.23-0.05 220.66-0.54L220.66-0.54Q219.57-1.46 219.25-3L219.25-3Q217.93-0.98 214.51 0.07L214.51 0.07Q211.44 1.03 208.31-0.05L208.31-0.05Q204.94-1.17 203.45-4.17L203.45-4.17Q202.69-5.69 202.69-7.51 202.69-9.33 203.4-10.58 204.11-11.84 205.28-12.65L205.28-12.65Q207.48-14.18 211.17-14.5L211.17-14.5Q214.12-14.79 218.81-14.92L218.81-14.92 218.81-19.31Q218.81-22.41 218.45-23.19 218.1-23.97 217.61-24.37L217.61-24.37Q216.78-25 214.24-25L214.24-25 213.32-24.98Q209.51-24.78 205.92-23.73L205.92-23.73 205.23-27.34Q209.51-28.59 213.63-28.59L213.63-28.59Q219.52-28.59 221.35-26.37L221.35-26.37Q222.45-25.02 222.67-23.07 222.89-21.12 222.91-19.46L222.91-19.46 222.91-5.52Q222.91-3.44 223.29-3.04 223.67-2.64 224.17-2.64 224.67-2.64 225.69-2.81L225.69-2.81ZM218.81-5.71L218.81-8.94Q218.81-10.67 218.91-12.13L218.91-12.13Q210.34-12.13 208.11-10.5L208.11-10.5Q206.87-9.62 206.87-7.76L206.87-7.76Q206.87-5.64 208.31-4.3L208.31-4.3Q209.7-3 211.95-3L211.95-3Q216.27-2.88 218.81-5.71L218.81-5.71ZM248.13-4.3L248.86-0.85Q245.37 0.49 241.93 0.49L241.93 0.49Q238.53 0.44 236.97-1L236.97-1Q235.21-2.61 235.21-6.35L235.21-6.35Q235.21-6.59 235.21-6.84 235.21-7.08 235.24-7.35L235.24-7.35 235.36-24.8 230.77-24.8 230.89-28.25 235.53-28.25Q235.53-32.32 235.24-34.08L235.24-34.08 239.44-34.77 239.61-28.25 247.32-28.25 247.32-24.8 239.53-24.8 239.44-7.62Q239.34-5.15 239.88-4.37 240.41-3.59 241.08-3.38 241.75-3.17 243.26-3.17 244.76-3.17 248.13-4.3L248.13-4.3ZM272.88-4.47L273.52-0.85Q270 0.49 266.4 0.49 262.8 0.49 260.42-0.34 258.04-1.17 256.33-2.93L256.33-2.93Q252.76-6.64 252.76-14.01L252.76-14.01Q252.76-28.61 265.26-28.61L265.26-28.61 266.12-28.59Q269.32-28.47 270.7-27.98 272.07-27.49 272.71-27.22L272.71-27.22 271.78-23.61Q268.71-25 265.56-25L265.56-25 265.14-25Q257.13-25 257.13-14.06L257.13-14.06Q257.13-8.28 259.77-5.47L259.77-5.47Q261.97-3.13 265.71-3.13 269.46-3.13 272.88-4.47L272.88-4.47ZM284.6 0L280.4 0 280.32-34.4Q280.28-38.79 280.25-39.55L280.25-39.55 284.43-39.89 284.43-24.8Q289.97-28.59 294.14-28.59L294.14-28.59Q300.98-28.59 302.61-23.68L302.61-23.68Q303.18-22 303.25-19.68L303.25-19.68 303.25 0 299.17 0 299.17-18.19Q299.17-21.92 298.07-23.44L298.07-23.44Q297.02-24.9 294.31-24.9L294.31-24.9Q290.7-24.9 287.04-23.07L287.04-23.07Q285.82-22.46 284.5-21.68L284.5-21.68 284.55-19.46Q284.6-17.6 284.6-15.7L284.6-15.7 284.6 0ZM314.7-33.74L314.7-39.55 318.85-39.55 318.85-33.74 314.7-33.74ZM314.7 0L314.7-28.25 318.85-28.25 318.85 0 314.7 0ZM334.32 0L330.15 0 330.17-8.28Q330.17-18.82 330.1-21.73L330.1-21.73 330-25.59Q329.93-27.83 329.86-28.25L329.86-28.25 334.05-28.47Q334.03-28.17 334.02-27.7 334.01-27.22 334.01-26.51L334.01-26.51 334.01-24.68Q339.72-28.59 344.1-28.59 348.48-28.59 350.73-26.45 352.98-24.32 353.1-19.68L353.1-19.68 353.1 0 348.9 0 348.9-18.19Q348.9-21.92 347.82-23.44L347.82-23.44Q346.75-24.9 344.04-24.9L344.04-24.9Q340.4-24.9 336.79-23.07L336.79-23.07Q335.57-22.46 334.23-21.68L334.23-21.68 334.27-19.46Q334.32-17.6 334.32-15.7L334.32-15.7 334.32 0ZM371.94-9.33L371.94-9.33Q369.6-9.33 367.89-9.99L367.89-9.99Q367.21-9.59 366.62-8.74L366.62-8.74Q365.67-7.37 365.67-6.76L365.67-6.76Q365.67-5.62 366.82-4.86L366.82-4.86Q367.87-4.2 369.46-4.2 371.06-4.2 372.33-4.39L372.33-4.39Q374.51-4.76 376.29-4.76 378.07-4.76 379.77-4.39 381.46-4.03 382.78-3.2L382.78-3.2Q385.69-1.37 385.91 2.32L385.91 2.32Q386.03 7.45 381.29 10.38L381.29 10.38Q377.46 12.77 372.24 12.94L372.24 12.94Q367.52 13.09 364.3 11.11L364.3 11.11Q363.23 10.45 362.42 9.52L362.42 9.52Q360.83 7.67 360.83 5L360.83 5Q360.83 1.64 363.18-0.88L363.18-0.88Q363.93-1.71 364.89-2.27L364.89-2.27Q362.08-3.74 362.08-6.27L362.08-6.27Q362.08-7.81 363.07-9.07 364.06-10.33 365.91-11.01L365.91-11.01Q362.08-13.38 362.08-18.87L362.08-18.87Q362.08-23.41 365.3-26.1L365.3-26.1Q368.28-28.59 372.5-28.59L372.5-28.59Q375.31-28.59 377.51-27.71L377.51-27.71Q378.31-27.56 380.55-27.56 382.78-27.56 387.05-28.47L387.05-28.47 387.71-24.9Q386.71-24.85 385.7-24.79 384.69-24.73 383.51-24.68L383.51-24.68 381.12-24.58Q382.29-23.19 382.64-20.34L382.64-20.34Q382.73-19.53 382.73-18.87L382.73-18.87Q382.73-14.21 379.51-11.62L379.51-11.62Q376.65-9.33 371.94-9.33ZM378.68-18.87L378.68-18.87Q378.78-22.68 376.8-24.32L376.8-24.32Q375.34-25.42 372.28-25.32L372.28-25.32Q368.06-25 366.64-21.53L366.64-21.53Q366.18-20.39 366.13-18.92L366.13-18.92Q366.08-15.82 367.67-14.21 369.26-12.6 372.16-12.6 375.07-12.6 376.87-14.31 378.68-16.02 378.68-18.87ZM376.39-0.95L370.48-0.59Q368.57-0.59 367.16-1.07L367.16-1.07Q365.55-0.07 364.98 2.39L364.98 2.39Q364.81 3.15 364.81 3.96L364.81 3.96Q364.81 5.86 365.86 7.13L365.86 7.13Q367.6 9.4 372.19 9.28L372.19 9.28Q375.87 9.18 377.88 8.2L377.88 8.2Q381.56 6.45 381.56 3.22L381.56 3.22Q381.46-0.95 376.39-0.95L376.39-0.95ZM423.26-4.3L423.99-0.85Q420.5 0.49 417.05 0.49L417.05 0.49Q413.66 0.44 412.1-1L412.1-1Q410.34-2.61 410.34-6.35L410.34-6.35Q410.34-6.59 410.34-6.84 410.34-7.08 410.37-7.35L410.37-7.35 410.49-24.8 405.9-24.8 406.02-28.25 410.66-28.25Q410.66-32.32 410.37-34.08L410.37-34.08 414.56-34.77 414.74-28.25 422.45-28.25 422.45-24.8 414.66-24.8 414.56-7.62Q414.47-5.15 415-4.37 415.54-3.59 416.21-3.38 416.88-3.17 418.39-3.17 419.89-3.17 423.26-4.3L423.26-4.3ZM429.21-13.77L429.21-13.77Q429.21-17.29 430.17-20.08 431.14-22.88 432.87-24.76L432.87-24.76Q436.36-28.59 442.05-28.59L442.05-28.59Q448.16-28.59 451.35-24.8L451.35-24.8Q454.48-21.09 454.48-14.01L454.48-14.01Q454.48-7.03 450.72-3.1L450.72-3.1Q447.28 0.49 441.71 0.49L441.71 0.49Q435.88 0.49 432.58-3.17L432.58-3.17Q429.21-6.86 429.21-13.77ZM441.76-3.05L441.76-3.05Q450.01-3.05 450.01-14.01L450.01-14.01Q449.86-22.22 445.52-24.29L445.52-24.29Q443.98-25.02 441.92-25.02 439.86-25.02 438.29-24.28 436.73-23.54 435.66-22.12L435.66-22.12Q433.48-19.17 433.54-13.89 433.61-8.62 435.67-5.83 437.73-3.05 441.76-3.05ZM480.01-16.99L480.01-37.94 484.23-37.94 484.23-16.99Q484.23-12.99 484.58-11.15 484.92-9.3 485.52-7.95 486.11-6.59 487.19-5.57L487.19-5.57Q489.53-3.39 493.98-3.39L493.98-3.39Q500.4-3.39 502.42-7.96L502.42-7.96Q503.52-10.47 503.62-12.99 503.72-15.5 503.72-16.99L503.72-16.99 503.72-37.94 507.97-37.94 507.97-16.99Q507.97-11.74 507.43-9.38 506.89-7.01 506.01-5.29 505.13-3.56 503.57-2.29L503.57-2.29Q500.2 0.49 493.98 0.49L493.98 0.49Q484.85 0.49 481.92-5.27L481.92-5.27Q480.33-8.47 480.11-12.94L480.11-12.94Q480.01-15.01 480.01-16.99L480.01-16.99ZM521.95 0L517.78 0 517.8-8.28Q517.8-18.82 517.73-21.73L517.73-21.73 517.63-25.59Q517.56-27.83 517.48-28.25L517.48-28.25 521.68-28.47Q521.66-28.17 521.65-27.7 521.63-27.22 521.63-26.51L521.63-26.51 521.63-24.68Q527.35-28.59 531.73-28.59 536.11-28.59 538.36-26.45 540.6-24.32 540.73-19.68L540.73-19.68 540.73 0 536.53 0 536.53-18.19Q536.53-21.92 535.45-23.44L535.45-23.44Q534.38-24.9 531.67-24.9L531.67-24.9Q528.03-24.9 524.42-23.07L524.42-23.07Q523.2-22.46 521.85-21.68L521.85-21.68 521.9-19.46Q521.95-17.6 521.95-15.7L521.95-15.7 521.95 0ZM569.53 0L569.12-3.66Q564.82 0.49 560.11 0.49L560.11 0.49Q552.74 0.59 550.32-6.81L550.32-6.81Q549.32-9.94 549.39-13.51 549.46-17.09 550.1-19.76 550.73-22.44 552.08-24.41L552.08-24.41Q554.98-28.59 560.77-28.59L560.77-28.59Q565.19-28.52 569.07-26.56L569.07-26.56 569.07-39.89 573.19-39.55 573.19-26.66Q573.19-2.64 573.37 0L573.37 0 569.53 0ZM569.19-23.56L569.19-23.56Q565.7-24.93 561.04-25.02L561.04-25.02Q555.15-25.02 554.1-18.24L554.1-18.24Q552.98-10.91 554.91-6.59L554.91-6.59Q556.45-3.13 560.43-3.13L560.43-3.13Q565.24-3.13 569.12-7.28L569.12-7.28 569.12-19.29Q569.12-20.31 569.14-21.35 569.17-22.39 569.19-23.56ZM602.07-4.47L602.88-0.85Q599.29 0.49 595.7 0.49L595.7 0.49Q588.38 0.49 585.13-3.96L585.13-3.96Q582.47-7.54 582.47-14.33 582.47-21.12 585.51-24.83 588.55-28.54 594.46-28.59L594.46-28.59Q599.97-28.59 602.76-24.46L602.76-24.46Q605.3-20.73 605.3-13.92L605.3-13.92 605.3-13.04 586.77-13.04Q587.18-5.25 592.09-3.61L592.09-3.61Q593.6-3.13 596.06-3.13 598.51-3.13 602.07-4.47L602.07-4.47ZM586.77-16.33L600.9-16.33Q600.61-20.56 599.39-22.63L599.39-22.63Q597.26-26.12 592.02-24.71L592.02-24.71Q589.11-23.95 587.67-20.9L587.67-20.9Q586.82-19.09 586.77-16.33L586.77-16.33ZM619.19-20.17L617.77-18.12Q617.87-16.26 617.87-13.43L617.87-13.43 617.87 0 613.74 0Q613.74-25.9 613.45-28.25L613.45-28.25 617.5-28.59 617.5-21.73Q620.75-28.59 626.22-28.59L626.22-28.59Q628.1-28.59 629.32-28.3L629.32-28.3 628.41-23.95Q627.24-24.54 625.79-24.55 624.34-24.56 623.14-23.9 621.94-23.24 620.96-22.27 619.97-21.29 619.19-20.17L619.19-20.17ZM650.21-27.51L649.38-23.9Q646.53-24.9 643.13-24.9L643.13-24.9Q640.01-24.9 638.79-22.66L638.79-22.66Q638.42-22 638.32-21.01 638.23-20.02 638.6-19.15 638.98-18.29 639.72-17.63L639.72-17.63Q640.86-16.58 642.72-15.84 644.57-15.11 645.51-14.7 646.45-14.28 647.31-13.77 648.16-13.26 648.91-12.6 649.65-11.94 650.19-11.11L650.19-11.11Q651.34-9.35 651.28-7.08 651.21-4.81 650.42-3.42 649.63-2.03 648.28-1.17L648.28-1.17Q645.77 0.49 641.3 0.49L641.3 0.49Q636.86 0.49 632.64-1.12L632.64-1.12 633.37-4.81Q637.25-3.27 641.4-3.17L641.4-3.17Q645.36-3.03 646.5-5.22L646.5-5.22Q647.38-6.88 646.65-8.54L646.65-8.54Q645.97-10.03 643.91-11.08L643.91-11.08Q642.94-11.6 641.71-12.1 640.47-12.6 639.07-13.28 637.66-13.96 636.52-14.97L636.52-14.97Q633.95-17.24 633.95-20.85L633.95-20.85 633.95-21.22Q633.95-23.07 634.86-24.5 635.76-25.93 637.05-26.81L637.05-26.81Q639.54-28.49 643.21-28.59L643.21-28.59Q646.89-28.59 650.21-27.51L650.21-27.51ZM673.4-4.3L674.14-0.85Q670.65 0.49 667.2 0.49L667.2 0.49Q663.81 0.44 662.25-1L662.25-1Q660.49-2.61 660.49-6.35L660.49-6.35Q660.49-6.59 660.49-6.84 660.49-7.08 660.51-7.35L660.51-7.35 660.64-24.8 656.05-24.8 656.17-28.25 660.81-28.25Q660.81-32.32 660.51-34.08L660.51-34.08 664.71-34.77 664.88-28.25 672.6-28.25 672.6-24.8 664.81-24.8 664.71-7.62Q664.62-5.15 665.15-4.37 665.69-3.59 666.36-3.38 667.03-3.17 668.53-3.17 670.04-3.17 673.4-4.3L673.4-4.3ZM700.99-2.81L701.26 0.22Q700.45 0.49 699.26 0.49 698.06 0.49 697.29 0.22 696.52-0.05 695.96-0.54L695.96-0.54Q694.86-1.46 694.54-3L694.54-3Q693.23-0.98 689.81 0.07L689.81 0.07Q686.73 1.03 683.61-0.05L683.61-0.05Q680.24-1.17 678.75-4.17L678.75-4.17Q677.99-5.69 677.99-7.51 677.99-9.33 678.7-10.58 679.41-11.84 680.58-12.65L680.58-12.65Q682.78-14.18 686.46-14.5L686.46-14.5Q689.42-14.79 694.11-14.92L694.11-14.92 694.11-19.31Q694.11-22.41 693.75-23.19 693.4-23.97 692.91-24.37L692.91-24.37Q692.08-25 689.54-25L689.54-25 688.61-24.98Q684.8-24.78 681.21-23.73L681.21-23.73 680.53-27.34Q684.8-28.59 688.93-28.59L688.93-28.59Q694.81-28.59 696.64-26.37L696.64-26.37Q697.74-25.02 697.96-23.07 698.18-21.12 698.21-19.46L698.21-19.46 698.21-5.52Q698.21-3.44 698.59-3.04 698.96-2.64 699.46-2.64 699.96-2.64 700.99-2.81L700.99-2.81ZM694.11-5.71L694.11-8.94Q694.11-10.67 694.2-12.13L694.2-12.13Q685.63-12.13 683.41-10.5L683.41-10.5Q682.17-9.62 682.17-7.76L682.17-7.76Q682.17-5.64 683.61-4.3L683.61-4.3Q685-3 687.24-3L687.24-3Q691.57-2.88 694.11-5.71L694.11-5.71ZM713.76 0L709.58 0 709.61-8.28Q709.61-18.82 709.53-21.73L709.53-21.73 709.43-25.59Q709.36-27.83 709.29-28.25L709.29-28.25 713.49-28.47Q713.46-28.17 713.45-27.7 713.44-27.22 713.44-26.51L713.44-26.51 713.44-24.68Q719.15-28.59 723.53-28.59 727.92-28.59 730.16-26.45 732.41-24.32 732.53-19.68L732.53-19.68 732.53 0 728.33 0 728.33-18.19Q728.33-21.92 727.26-23.44L727.26-23.44Q726.18-24.9 723.47-24.9L723.47-24.9Q719.83-24.9 716.22-23.07L716.22-23.07Q715-22.46 713.66-21.68L713.66-21.68 713.71-19.46Q713.76-17.6 713.76-15.7L713.76-15.7 713.76 0ZM761.34 0L760.92-3.66Q756.62 0.49 751.91 0.49L751.91 0.49Q744.54 0.59 742.12-6.81L742.12-6.81Q741.12-9.94 741.19-13.51 741.27-17.09 741.9-19.76 742.54-22.44 743.88-24.41L743.88-24.41Q746.79-28.59 752.57-28.59L752.57-28.59Q756.99-28.52 760.87-26.56L760.87-26.56 760.87-39.89 765-39.55 765-26.66Q765-2.64 765.17 0L765.17 0 761.34 0ZM760.99-23.56L760.99-23.56Q757.5-24.93 752.84-25.02L752.84-25.02Q746.96-25.02 745.91-18.24L745.91-18.24Q744.78-10.91 746.71-6.59L746.71-6.59Q748.25-3.13 752.23-3.13L752.23-3.13Q757.04-3.13 760.92-7.28L760.92-7.28 760.92-19.29Q760.92-20.31 760.95-21.35 760.97-22.39 760.99-23.56ZM777.59-33.74L777.59-39.55 781.74-39.55 781.74-33.74 777.59-33.74ZM777.59 0L777.59-28.25 781.74-28.25 781.74 0 777.59 0ZM797.22 0L793.05 0 793.07-8.28Q793.07-18.82 793-21.73L793-21.73 792.9-25.59Q792.83-27.83 792.75-28.25L792.75-28.25 796.95-28.47Q796.93-28.17 796.91-27.7 796.9-27.22 796.9-26.51L796.9-26.51 796.9-24.68Q802.62-28.59 807-28.59 811.38-28.59 813.63-26.45 815.87-24.32 815.99-19.68L815.99-19.68 815.99 0 811.8 0 811.8-18.19Q811.8-21.92 810.72-23.44L810.72-23.44Q809.65-24.9 806.94-24.9L806.94-24.9Q803.3-24.9 799.69-23.07L799.69-23.07Q798.47-22.46 797.12-21.68L797.12-21.68 797.17-19.46Q797.22-17.6 797.22-15.7L797.22-15.7 797.22 0ZM834.84-9.33L834.84-9.33Q832.5-9.33 830.79-9.99L830.79-9.99Q830.1-9.59 829.52-8.74L829.52-8.74Q828.57-7.37 828.57-6.76L828.57-6.76Q828.57-5.62 829.71-4.86L829.71-4.86Q830.76-4.2 832.36-4.2 833.96-4.2 835.23-4.39L835.23-4.39Q837.4-4.76 839.19-4.76 840.97-4.76 842.66-4.39 844.36-4.03 845.68-3.2L845.68-3.2Q848.58-1.37 848.8 2.32L848.8 2.32Q848.93 7.45 844.19 10.38L844.19 10.38Q840.36 12.77 835.13 12.94L835.13 12.94Q830.42 13.09 827.2 11.11L827.2 11.11Q826.12 10.45 825.32 9.52L825.32 9.52Q823.73 7.67 823.73 5L823.73 5Q823.73 1.64 826.07-0.88L826.07-0.88Q826.83-1.71 827.78-2.27L827.78-2.27Q824.98-3.74 824.98-6.27L824.98-6.27Q824.98-7.81 825.97-9.07 826.95-10.33 828.81-11.01L828.81-11.01Q824.98-13.38 824.98-18.87L824.98-18.87Q824.98-23.41 828.2-26.1L828.2-26.1Q831.18-28.59 835.4-28.59L835.4-28.59Q838.21-28.59 840.41-27.71L840.41-27.71Q841.21-27.56 843.45-27.56 845.68-27.56 849.95-28.47L849.95-28.47 850.61-24.9Q849.61-24.85 848.6-24.79 847.58-24.73 846.41-24.68L846.41-24.68 844.02-24.58Q845.19-23.19 845.53-20.34L845.53-20.34Q845.63-19.53 845.63-18.87L845.63-18.87Q845.63-14.21 842.41-11.62L842.41-11.62Q839.55-9.33 834.84-9.33ZM841.58-18.87L841.58-18.87Q841.68-22.68 839.7-24.32L839.7-24.32Q838.23-25.42 835.18-25.32L835.18-25.32Q830.96-25 829.54-21.53L829.54-21.53Q829.08-20.39 829.03-18.92L829.03-18.92Q828.98-15.82 830.57-14.21 832.15-12.6 835.06-12.6 837.96-12.6 839.77-14.31 841.58-16.02 841.58-18.87ZM839.28-0.95L833.37-0.59Q831.47-0.59 830.05-1.07L830.05-1.07Q828.44-0.07 827.88 2.39L827.88 2.39Q827.71 3.15 827.71 3.96L827.71 3.96Q827.71 5.86 828.76 7.13L828.76 7.13Q830.49 9.4 835.08 9.28L835.08 9.28Q838.77 9.18 840.77 8.2L840.77 8.2Q844.46 6.45 844.46 3.22L844.46 3.22Q844.36-0.95 839.28-0.95L839.28-0.95Z" opacity="1" transform="matrix(1,0,0,1,0,0)" fill="#375a82" class="slogan-text-1" data-fill-palette-color="secondary" id="text-1"></path></svg></g></svg></g></svg></g></svg></g><g><svg viewBox="0 0 144.1693539370391 144.1693539370391" height="144.1693539370391" width="144.1693539370391"><g><svg xmlns="http://www.w3.org/2000/svg" xmlns:xlink="http://www.w3.org/1999/xlink" version="1.1" x="0" y="0" viewBox="4.5 4.5 91 91" enable-background="new 0 0 100 100" xml:space="preserve" height="144.1693539370391" width="144.1693539370391" class="icon-icon-0" data-fill-palette-color="accent" id="icon-0"><g fill="#001f3f" data-fill-palette-color="accent"><path d="M95.5 95.5H4.5V4.5H11.418L11.442 5.946C11.46 7.06 12.212 7.78 13.359 7.78 14.487 7.78 15.258 7.037 15.276 5.93L15.299 4.5H20.531L20.555 5.946C20.573 7.06 21.325 7.78 22.471 7.78 23.6 7.78 24.37 7.037 24.388 5.93L24.413 4.5H29.645L29.669 5.946C29.687 7.06 30.439 7.78 31.586 7.78 32.714 7.78 33.485 7.037 33.503 5.93L33.526 4.5H38.758L38.782 5.946C38.8 7.06 39.552 7.78 40.699 7.78 41.827 7.78 42.598 7.037 42.616 5.93L42.639 4.5H47.871L47.895 5.946C47.913 7.06 48.665 7.78 49.812 7.78 50.94 7.78 51.711 7.037 51.729 5.93L51.752 4.5H56.985L57.008 5.946C57.026 7.06 57.779 7.78 58.925 7.78 60.054 7.78 60.824 7.037 60.841 5.93L60.867 4.5H66.097L66.122 5.946C66.139 7.061 66.892 7.78 68.038 7.78 69.167 7.78 69.937 7.037 69.954 5.93L69.98 4.5H75.21L75.235 5.946C75.252 7.061 76.005 7.78 77.151 7.78 78.28 7.78 79.05 7.037 79.067 5.93L79.094 4.5H84.324L84.349 5.946C84.367 7.061 85.119 7.78 86.265 7.78 87.394 7.78 88.164 7.037 88.182 5.93L88.206 4.5H95.5zM5.5 94.5H94.5V5.5H89.19L89.182 5.947C89.155 7.615 87.955 8.78 86.265 8.78S83.375 7.621 83.349 5.962L83.342 5.5H80.076L80.068 5.947C80.043 7.614 78.843 8.78 77.152 8.78S74.261 7.621 74.236 5.962L74.229 5.5H70.963L70.955 5.947C70.93 7.615 69.73 8.78 68.039 8.78S65.148 7.621 65.123 5.962L65.115 5.5H61.85L61.842 5.947C61.817 7.614 60.617 8.78 58.926 8.78S56.035 7.621 56.009 5.962L56.001 5.5H52.736L52.728 5.947C52.701 7.615 51.501 8.78 49.811 8.78S46.921 7.621 46.894 5.962L46.888 5.5H43.622L43.615 5.947C43.588 7.615 42.389 8.78 40.698 8.78S37.808 7.621 37.781 5.962L37.775 5.5H34.509L34.502 5.947C34.475 7.615 33.276 8.78 31.585 8.78S28.695 7.621 28.668 5.962L28.661 5.5H25.396L25.388 5.947C25.362 7.614 24.162 8.78 22.471 8.78S19.581 7.621 19.555 5.962L19.548 5.5H16.283L16.275 5.947C16.248 7.614 15.049 8.78 13.358 8.78S10.468 7.621 10.441 5.962L10.435 5.5H5.5z" fill="#001f3f" data-fill-palette-color="accent"></path></g><g fill="#001f3f" data-fill-palette-color="accent"><rect x="13" y="73" width="74" height="1" fill="#001f3f" data-fill-palette-color="accent"></rect></g><g fill="#001f3f" data-fill-palette-color="accent"><rect x="13" y="64" width="74" height="1" fill="#001f3f" data-fill-palette-color="accent"></rect></g><g fill="#001f3f" data-fill-palette-color="accent"><rect x="13" y="55" width="74" height="1" fill="#001f3f" data-fill-palette-color="accent"></rect></g><g fill="#001f3f" data-fill-palette-color="accent"><rect x="13" y="45" width="74" height="1" fill="#001f3f" data-fill-palette-color="accent"></rect></g><g fill="#001f3f" data-fill-palette-color="accent"><rect x="13" y="36" width="74" height="1" fill="#001f3f" data-fill-palette-color="accent"></rect></g><g fill="#001f3f" data-fill-palette-color="accent"><rect x="13" y="27" width="74" height="1" fill="#001f3f" data-fill-palette-color="accent"></rect></g></svg></g></svg></g></svg></g><defs></defs></svg><rect width="395.52" height="98.91693868217854" fill="none" stroke="none" visibility="hidden"></rect></g></svg></g></svg>